<?xml version="1.0" encoding="UTF-8"?> <!-- Generator: Adobe Illustrator 24.2.1, SVG Export Plug-In . SVG Version: 6.00 Build 0) --> <svg xmlns="http://www.w3.org/2000/svg" xmlns:xlink="http://www.w3.org/1999/xlink" version="1.1" id="Layer_1" x="0px" y="0px" viewBox="0 0 995.3 377.3" style="enable-background:new 0 0 995.3 377.3;" xml:space="preserve"> <style type="text/css"> .st0{fill:#0C3555;} .st1{fill:#A2C9D2;} .st2{fill-rule:evenodd;clip-rule:evenodd;fill:#0C3555;} .st3{fill-rule:evenodd;clip-rule:evenodd;fill:#6898B8;} .st4{fill-rule:evenodd;clip-rule:evenodd;fill:#F8C37A;} .st5{fill-rule:evenodd;clip-rule:evenodd;fill:#A2C9D2;} .st6{fill-rule:evenodd;clip-rule:evenodd;fill:#FCE6AD;} .st7{fill-rule:evenodd;clip-rule:evenodd;fill:#FBE7AC;} .st8{fill-rule:evenodd;clip-rule:evenodd;fill:#D2E5EA;} .st9{fill-rule:evenodd;clip-rule:evenodd;fill:#FFFFFF;} .st10{fill-rule:evenodd;clip-rule:evenodd;fill:#FFF6D1;} </style> <g> <g> <g> <path class="st0" d="M360.2,234.3c0,11.7-5.8,17.5-17.4,17.5h-62.1c-11.3,0-17-5.8-17-17.5V77.9c0-11.7,5.7-17.6,17-17.6h62.1 c11.6,0,17.4,5.9,17.4,17.6V234.3z M331.6,227.2V84.9h-39.3v142.3H331.6z"></path> <path class="st0" d="M464.2,226.9c0,10-3.6,17-10.8,21c-5.2,2.9-13.1,4.3-23.7,4.3c-2.4,0-5.9-0.1-10.3-0.2 c-4.4-0.2-7.6-0.2-9.6-0.2v45.1h-28V128.2h28v4.5c6.5-1,13-2,19.6-3.1c8.2-1.3,14.8-2,19.6-2c10.2,0,15.3,5,15.3,15V226.9z M436.1,219.2v-67.6l-26.3,0.5v76.4h17.4C433.1,228.5,436.1,225.4,436.1,219.2z"></path> <path class="st0" d="M563.9,236.5c0,10.2-5.3,15.3-15.8,15.3h-48.3c-10.5,0-15.8-5.1-15.8-15.3v-93c0-10.2,5.3-15.3,15.8-15.3 h48.3c10.5,0,15.8,5.1,15.8,15.3v45.4l-7.7,7.7h-45.4v34.6h26.3v-20.5h26.8V236.5z M537.1,178.4v-29.6h-26.3v29.6H537.1z"></path> <path class="st0" d="M666.6,251.7h-28.1V151.6l-26.3,0.5v99.7h-28V128.2h28v4.5c6.5-1.1,13-2.1,19.4-3.1c8-1.3,14.6-2,19.7-2 c10.2,0,15.3,5,15.3,15V251.7z"></path> <path class="st0" d="M779.9,234.3c0,11.7-5.8,17.5-17.4,17.5h-57.6c-11.5,0-17.2-5.8-17.2-17.5v-45.6h28.6v39h35v-37.6 l-57.4-54.3c-4.2-4-6.2-9.1-6.2-15.3V77.9c0-11.7,5.7-17.6,17.2-17.6h57.6c11.6,0,17.4,5.8,17.4,17.4v42.8h-28.6V84.4h-35V119 l57.4,54.1c4.2,3.9,6.2,9.1,6.2,15.5V234.3z"></path> <path class="st0" d="M894.4,234.3c0,11.7-5.8,17.5-17.4,17.5h-57.6c-11.5,0-17.2-5.8-17.2-17.5v-45.6h28.6v39h35v-37.6 l-57.4-54.3c-4.2-4-6.2-9.1-6.2-15.3V77.9c0-11.7,5.7-17.6,17.2-17.6H877c11.6,0,17.4,5.8,17.4,17.4v42.8h-28.6V84.4h-35V119 l57.4,54.1c4.2,3.9,6.2,9.1,6.2,15.5V234.3z"></path> <path class="st0" d="M995.3,85.6h-49.5v56.6h42.3v24.8h-42.3v84.6h-28.6V60.3h78.2V85.6z"></path> </g> <g> <path class="st1" d="M287,348.6c0,3.9-1,7-3.1,9.2c-2.1,2.2-4.9,3.3-8.4,3.3c-3.4,0-6.2-1.1-8.2-3.3c-2-2.2-3-5.2-3-9.2v-9.1 c0-3.9,1-7,3.1-9.2c2-2.2,4.8-3.3,8.2-3.3c3.5,0,6.3,1.1,8.3,3.3c2.1,2.2,3.1,5.3,3.1,9.2V348.6z M282.3,339.4 c0-2.9-0.6-5.1-1.8-6.6c-1.2-1.5-2.8-2.2-5-2.2c-2.1,0-3.8,0.7-4.9,2.2c-1.1,1.5-1.7,3.7-1.7,6.6v9.2c0,2.9,0.6,5.1,1.7,6.6 s2.8,2.2,4.9,2.2c2.2,0,3.8-0.7,5-2.2c1.2-1.5,1.8-3.7,1.8-6.6V339.4z"></path> <path class="st1" d="M297.1,347.5v13.1h-4.7v-33.1h11.1c3.2,0,5.6,0.9,7.4,2.8c1.8,1.8,2.7,4.2,2.7,7.2c0,3-0.9,5.4-2.7,7.3 c-1.8,1.8-4.3,2.7-7.4,2.7H297.1z M297.1,344h6.4c1.8,0,3.1-0.6,4-1.8c0.9-1.2,1.4-2.8,1.4-4.6c0-1.9-0.5-3.4-1.4-4.7 c-0.9-1.2-2.3-1.9-4.1-1.9h-6.4V344z"></path> <path class="st1" d="M336,345.2h-12.6v11.9H338v3.5h-19.3v-33.1h19.1v3.5h-14.4v10.7H336V345.2z"></path> <path class="st1" d="M364.8,360.6h-4.7L347.3,336l-0.1,0v24.6h-4.7v-33.1h4.7L360,352l0.1,0v-24.5h4.7V360.6z"></path> <path class="st1" d="M397.3,352.2c0-1.6-0.4-2.8-1.3-3.8s-2.5-1.9-4.7-2.6c-3.2-1-5.7-2.2-7.4-3.7c-1.7-1.5-2.6-3.6-2.6-6.1 c0-2.6,1-4.7,2.9-6.4c1.9-1.7,4.4-2.5,7.4-2.5c3.1,0,5.7,1,7.6,2.9c1.9,1.9,2.8,4.3,2.8,7l0,0.1h-4.5c0-1.9-0.5-3.5-1.5-4.7 c-1-1.2-2.4-1.8-4.3-1.8c-1.8,0-3.1,0.5-4.1,1.5c-1,1-1.4,2.3-1.4,3.9c0,1.4,0.5,2.6,1.5,3.6c1,1,2.7,1.8,5.1,2.6 c3.1,0.9,5.4,2.2,7,3.8c1.6,1.6,2.4,3.7,2.4,6.3c0,2.7-1,4.9-2.9,6.5c-1.9,1.6-4.4,2.4-7.5,2.4c-3,0-5.7-0.9-7.9-2.6 c-2.3-1.7-3.3-4.2-3.3-7.4l0-0.1h4.5c0,2.3,0.6,3.9,1.8,5c1.2,1.1,2.8,1.6,4.8,1.6c1.8,0,3.2-0.5,4.2-1.4 C396.8,355.1,397.3,353.8,397.3,352.2z"></path> <path class="st1" d="M428.6,348.6c0,3.9-1,7-3.1,9.2c-2.1,2.2-4.9,3.3-8.4,3.3c-3.4,0-6.2-1.1-8.2-3.3c-2-2.2-3-5.2-3-9.2v-9.1 c0-3.9,1-7,3.1-9.2c2-2.2,4.8-3.3,8.2-3.3c3.5,0,6.3,1.1,8.3,3.3c2.1,2.2,3.1,5.3,3.1,9.2V348.6z M423.9,339.4 c0-2.9-0.6-5.1-1.8-6.6c-1.2-1.5-2.8-2.2-5-2.2c-2.1,0-3.8,0.7-4.9,2.2c-1.1,1.5-1.7,3.7-1.7,6.6v9.2c0,2.9,0.6,5.1,1.7,6.6 s2.8,2.2,4.9,2.2c2.2,0,3.8-0.7,5-2.2c1.2-1.5,1.8-3.7,1.8-6.6V339.4z"></path> <path class="st1" d="M455.1,327.5v22.9c0,3.4-1,6.1-3,7.9c-2,1.8-4.6,2.7-7.9,2.7c-3.2,0-5.8-0.9-7.7-2.7c-2-1.8-3-4.5-3-7.9 v-22.9h4.7v22.9c0,2.4,0.5,4.1,1.6,5.3c1.1,1.2,2.6,1.8,4.4,1.8c1.9,0,3.4-0.6,4.5-1.7c1.1-1.2,1.7-3,1.7-5.4v-22.9H455.1z"></path> <path class="st1" d="M465.8,346.3v14.3H461v-33.1h10.5c3.2,0,5.7,0.8,7.4,2.4c1.8,1.6,2.6,3.9,2.6,7c0,1.7-0.4,3.2-1.2,4.5 c-0.8,1.3-2,2.3-3.5,3c1.7,0.6,2.9,1.5,3.7,2.9c0.8,1.3,1.1,3,1.1,5v2.9c0,1,0.1,2,0.3,2.8c0.2,0.9,0.6,1.6,1.1,2.1v0.5h-4.9 c-0.5-0.5-0.9-1.3-1-2.3c-0.1-1-0.2-2.1-0.2-3.2v-2.8c0-1.9-0.4-3.3-1.3-4.4c-0.9-1.1-2-1.6-3.5-1.6H465.8z M465.8,342.8h5.6 c1.9,0,3.3-0.5,4.2-1.5c0.9-1,1.4-2.4,1.4-4.3c0-1.9-0.4-3.4-1.3-4.4c-0.9-1-2.2-1.6-4-1.6h-5.8V342.8z"></path> <path class="st1" d="M508.1,350.5l0.1,0.1c0,3.3-0.9,5.9-2.7,7.7c-1.8,1.8-4.3,2.7-7.6,2.7c-3.3,0-6-1.1-8-3.3 c-2-2.2-3-5.2-3-9.1v-9.2c0-3.9,1-7,2.9-9.2c2-2.2,4.6-3.3,7.9-3.3c3.3,0,5.9,0.9,7.7,2.7c1.8,1.8,2.7,4.4,2.7,7.8l-0.1,0.1h-4.5 c0-2.4-0.5-4.2-1.5-5.3c-0.9-1.1-2.4-1.7-4.4-1.7c-1.9,0-3.4,0.8-4.5,2.3c-1.1,1.5-1.6,3.7-1.6,6.6v9.3c0,2.9,0.5,5.1,1.6,6.6 s2.6,2.3,4.6,2.3c2,0,3.4-0.6,4.3-1.7c0.9-1.1,1.4-2.9,1.4-5.3H508.1z"></path> <path class="st1" d="M530.6,345.2H518v11.9h14.6v3.5h-19.3v-33.1h19.1v3.5H518v10.7h12.6V345.2z"></path> <path class="st1" d="M562.8,352.2c0-1.6-0.4-2.8-1.3-3.8c-0.9-1-2.5-1.9-4.7-2.6c-3.2-1-5.7-2.2-7.4-3.7 c-1.7-1.5-2.6-3.6-2.6-6.1c0-2.6,1-4.7,2.9-6.4c1.9-1.7,4.4-2.5,7.4-2.5c3.1,0,5.7,1,7.6,2.9c1.9,1.9,2.8,4.3,2.8,7l0,0.1h-4.5 c0-1.9-0.5-3.5-1.5-4.7c-1-1.2-2.4-1.8-4.3-1.8c-1.8,0-3.1,0.5-4.1,1.5c-1,1-1.4,2.3-1.4,3.9c0,1.4,0.5,2.6,1.5,3.6 c1,1,2.7,1.8,5.1,2.6c3.1,0.9,5.4,2.2,7,3.8c1.6,1.6,2.4,3.7,2.4,6.3c0,2.7-1,4.9-2.9,6.5c-1.9,1.6-4.4,2.4-7.5,2.4 c-3,0-5.7-0.9-7.9-2.6c-2.3-1.7-3.3-4.2-3.3-7.4l0-0.1h4.5c0,2.3,0.6,3.9,1.8,5c1.2,1.1,2.8,1.6,4.8,1.6c1.8,0,3.2-0.5,4.2-1.4 C562.3,355.1,562.8,353.8,562.8,352.2z"></path> <path class="st1" d="M589.9,345.2h-12.6v11.9h14.6v3.5h-19.3v-33.1h19.1v3.5h-14.4v10.7h12.6V345.2z"></path> <path class="st1" d="M616.3,350.5l0.1,0.1c0,3.3-0.9,5.9-2.7,7.7c-1.8,1.8-4.3,2.7-7.6,2.7c-3.3,0-6-1.1-8-3.3 c-2-2.2-3-5.2-3-9.1v-9.2c0-3.9,1-7,2.9-9.2c2-2.2,4.6-3.3,7.9-3.3c3.3,0,5.9,0.9,7.7,2.7c1.8,1.8,2.7,4.4,2.7,7.8l-0.1,0.1h-4.5 c0-2.4-0.5-4.2-1.5-5.3c-0.9-1.1-2.4-1.7-4.4-1.7c-1.9,0-3.4,0.8-4.5,2.3c-1.1,1.5-1.6,3.7-1.6,6.6v9.3c0,2.9,0.5,5.1,1.6,6.6 s2.6,2.3,4.6,2.3c2,0,3.4-0.6,4.3-1.7c0.9-1.1,1.4-2.9,1.4-5.3H616.3z"></path> <path class="st1" d="M642.5,327.5v22.9c0,3.4-1,6.1-3,7.9c-2,1.8-4.6,2.7-7.9,2.7c-3.2,0-5.8-0.9-7.7-2.7c-2-1.8-3-4.5-3-7.9 v-22.9h4.7v22.9c0,2.4,0.5,4.1,1.6,5.3c1.1,1.2,2.6,1.8,4.4,1.8c1.9,0,3.4-0.6,4.5-1.7c1.1-1.2,1.7-3,1.7-5.4v-22.9H642.5z"></path> <path class="st1" d="M653.2,346.3v14.3h-4.7v-33.1H659c3.2,0,5.7,0.8,7.4,2.4c1.8,1.6,2.6,3.9,2.6,7c0,1.7-0.4,3.2-1.2,4.5 c-0.8,1.3-2,2.3-3.5,3c1.7,0.6,2.9,1.5,3.7,2.9c0.8,1.3,1.1,3,1.1,5v2.9c0,1,0.1,2,0.3,2.8c0.2,0.9,0.6,1.6,1.1,2.1v0.5h-4.9 c-0.5-0.5-0.9-1.3-1-2.3c-0.1-1-0.2-2.1-0.2-3.2v-2.8c0-1.9-0.4-3.3-1.3-4.4c-0.9-1.1-2-1.6-3.5-1.6H653.2z M653.2,342.8h5.6 c1.9,0,3.3-0.5,4.2-1.5c0.9-1,1.4-2.4,1.4-4.3c0-1.9-0.4-3.4-1.3-4.4c-0.9-1-2.2-1.6-4-1.6h-5.8V342.8z"></path> <path class="st1" d="M680.6,360.6h-4.7v-33.1h4.7V360.6z"></path> <path class="st1" d="M706.4,331h-8.7v29.6H693V331h-8.7v-3.5h22.1V331z"></path> <path class="st1" d="M720.3,343.5h0.1l6.9-16.1h5.2l-10,21.2v11.9h-4.7v-12.2l-9.8-20.9h5.3L720.3,343.5z"></path> <path class="st1" d="M764.1,345.8h-12.6v14.7h-4.7v-33.1h19.3v3.5h-14.6v11.4h12.6V345.8z"></path> <path class="st1" d="M792.1,348.6c0,3.9-1,7-3.1,9.2c-2.1,2.2-4.9,3.3-8.4,3.3c-3.4,0-6.2-1.1-8.2-3.3c-2-2.2-3-5.2-3-9.2v-9.1 c0-3.9,1-7,3.1-9.2c2-2.2,4.8-3.3,8.2-3.3c3.5,0,6.3,1.1,8.3,3.3c2.1,2.2,3.1,5.3,3.1,9.2V348.6z M787.4,339.4 c0-2.9-0.6-5.1-1.8-6.6c-1.2-1.5-2.8-2.2-5-2.2c-2.1,0-3.8,0.7-4.9,2.2c-1.1,1.5-1.7,3.7-1.7,6.6v9.2c0,2.9,0.6,5.1,1.7,6.6 c1.1,1.5,2.8,2.2,4.9,2.2c2.2,0,3.8-0.7,5-2.2c1.2-1.5,1.8-3.7,1.8-6.6V339.4z"></path> <path class="st1" d="M818.5,327.5v22.9c0,3.4-1,6.1-3,7.9c-2,1.8-4.6,2.7-7.9,2.7c-3.2,0-5.8-0.9-7.7-2.7c-2-1.8-3-4.5-3-7.9 v-22.9h4.7v22.9c0,2.4,0.5,4.1,1.6,5.3c1.1,1.2,2.6,1.8,4.4,1.8c1.9,0,3.4-0.6,4.5-1.7c1.1-1.2,1.7-3,1.7-5.4v-22.9H818.5z"></path> <path class="st1" d="M846.9,360.6h-4.7L829.4,336l-0.1,0v24.6h-4.7v-33.1h4.7l12.8,24.5l0.1,0v-24.5h4.7V360.6z"></path> <path class="st1" d="M853.5,360.6v-33.1h9.3c3.6,0,6.5,1.3,8.8,4c2.3,2.7,3.4,6.1,3.4,10.2v4.7c0,4.2-1.1,7.6-3.4,10.2 c-2.3,2.6-5.2,4-8.8,4H853.5z M858.2,331v26.1h4.4c2.4,0,4.2-1,5.6-3c1.4-2,2.1-4.6,2.1-7.7v-4.8c0-3.1-0.7-5.7-2.1-7.7 c-1.4-2-3.2-3-5.6-3H858.2z"></path> <path class="st1" d="M895.3,352.2h-10.8l-2.5,8.4h-4.8l10.4-33.1h4.6l10.3,33.1h-4.8L895.3,352.2z M885.6,348.5h8.6l-4.2-14.4 h-0.1L885.6,348.5z"></path> <path class="st1" d="M922.9,331h-8.7v29.6h-4.7V331h-8.7v-3.5h22.1V331z"></path> <path class="st1" d="M932,360.6h-4.7v-33.1h4.7V360.6z"></path> <path class="st1" d="M960.5,348.6c0,3.9-1,7-3.1,9.2c-2.1,2.2-4.9,3.3-8.4,3.3c-3.4,0-6.2-1.1-8.2-3.3c-2-2.2-3-5.2-3-9.2v-9.1 c0-3.9,1-7,3.1-9.2c2-2.2,4.8-3.3,8.2-3.3c3.5,0,6.3,1.1,8.3,3.3c2.1,2.2,3.1,5.3,3.1,9.2V348.6z M955.8,339.4 c0-2.9-0.6-5.1-1.8-6.6c-1.2-1.5-2.8-2.2-5-2.2c-2.1,0-3.8,0.7-4.9,2.2c-1.1,1.5-1.7,3.7-1.7,6.6v9.2c0,2.9,0.6,5.1,1.7,6.6 c1.1,1.5,2.8,2.2,4.9,2.2c2.2,0,3.8-0.7,5-2.2c1.2-1.5,1.8-3.7,1.8-6.6V339.4z"></path> <path class="st1" d="M988.3,360.6h-4.7L970.8,336l-0.1,0v24.6h-4.7v-33.1h4.7l12.8,24.5l0.1,0v-24.5h4.7V360.6z"></path> </g> <g> <g> <g> <path class="st2" d="M124.8,119.2c2.4,0.2,4.6,1.1,6.3,2.8c2.1,2,3.3,4.8,3.4,7.7c2.5,1.4,4.9,2.9,7.1,4.6 c3.5-0.2,7.4,0.3,10.6,1.8c0.2-0.2,0.4-0.4,0.6-0.6c1.1-1,2.2-2.1,3.1-3.2c0.8-1,1.8-1.5,3.1-1.5c1.2,0,2.3,0.5,3.1,1.5 c0.9,1.2,2,2.2,3.1,3.2c2.8,2.6,6,4.9,9.3,6.7c10.9,6,22.8,7,34.8,3.6c1-0.3,2.1-0.2,3,0.4c0.9,0.5,1.6,1.3,1.8,2.4 c3.7,13.9,5.7,28.2,5.9,42.6c0.1,7.4-0.3,14.9-1.1,22.3c-0.8,7.3-2.2,14.6-4,21.8c-1.8,6.9-4.1,13.9-7.5,20.2 c-2.8,5.2-6.2,9.9-10.4,14c-4.6,4.4-9.9,7.9-15.4,11c-3.1,1.7-6.3,3.4-9.5,4.9c-3.4,1.6-6.7,3.2-10.1,4.8l2.9,14.6 c1.8,0.3,3.2,1.6,4.1,3.1c1.7,2.6,2.4,7.3,2.7,10.5c6.7,5.1,13.2,10.5,19.2,16.3c6.5,4.6,12.9,10.7,15.8,18.2 c1.3,3.3,1.9,7,1.3,10.5c-0.4,2.4-1.3,4.7-2.7,6.7c-2.2,3.1-5.4,5.1-9,6.1c-6.7,1.9-13.6,1.2-19.9-1.6 c-10.1-4.3-18-13.3-23.9-22.3c-0.3-0.4-0.5-0.9-0.6-1.3c-1.1-1.7-2.3-3.3-3.3-5c-2.4-3.7-5.3-8.9-4.4-13.5 c0.2-0.8,0.4-1.6,0.6-2.3c0-0.1,0-0.2,0-0.3c0.2-2.8,1.4-5.7,3.7-7.4c0.3-0.5,0.7-0.9,1-1.3c-0.3-1.8-0.8-3.5-1.1-5.3 c-0.5-2.5-0.9-5.3,0.9-7.4c0.3-0.4,0.7-0.8,1.2-1.1c-1.1-4.1-2.2-8.1-3.3-12.2c-1-3.6-2-7.3-3.1-10.9 c-9.4-4.7-18.7-9.9-25.8-17.8c-0.1,0-0.2,0-0.2,0c-4.3,0-8.5-0.5-12.7-1.5c-0.4,2.4-2,4.4-4.1,5.8l5.8,24c0.5,0.3,1,0.7,1.4,1 c4.1,3.3,6.1,8.7,7.1,13.8c0.5,2.9,0.8,5.9,0.9,8.8c0.1,2.8,0,5.7-0.4,8.5c-0.2,2.1-2,3.6-4.1,3.6H36.4c-1.3,0-2.5-0.6-3.3-1.6 c-0.8-1-1-2.3-0.7-3.6c0.6-2.2,1.2-4.4,1.8-6.7c0-0.1,0.1-0.3,0.1-0.4c0-0.1,0.1-0.3,0.1-0.4c0-0.1,0.1-0.3,0.1-0.4 c0-0.1,0.1-0.3,0.2-0.4c0.1-0.1,0.1-0.3,0.2-0.4c0.1-0.1,0.1-0.3,0.2-0.4c0.1-0.1,0.1-0.3,0.2-0.4c0.1-0.1,0.1-0.3,0.2-0.4 c0.1-0.1,0.1-0.3,0.2-0.4c0.1-0.1,0.1-0.3,0.2-0.4c0.1-0.1,0.1-0.2,0.2-0.4c0.1-0.1,0.1-0.2,0.2-0.4c0.1-0.1,0.2-0.2,0.2-0.4 c0.1-0.1,0.2-0.2,0.2-0.3c0.1-0.1,0.2-0.2,0.2-0.3c0.1-0.1,0.2-0.2,0.3-0.3c0.1-0.1,0.2-0.2,0.3-0.3c0.1-0.1,0.2-0.2,0.3-0.3 c0.1-0.1,0.2-0.2,0.3-0.3c0.1-0.1,0.2-0.2,0.3-0.3c0.1-0.1,0.2-0.2,0.3-0.3c0.1-0.1,0.2-0.2,0.3-0.3c0.1-0.1,0.2-0.2,0.3-0.3 c0.1-0.1,0.2-0.2,0.3-0.3c0.1-0.1,0.2-0.2,0.3-0.3c0.1-0.1,0.2-0.2,0.3-0.3c0.1-0.1,0.2-0.2,0.3-0.3c0.1-0.1,0.2-0.2,0.3-0.3 c0.1-0.1,0.2-0.2,0.3-0.3c0.1-0.1,0.2-0.2,0.3-0.2c0.1-0.1,0.2-0.2,0.3-0.2c0.1-0.1,0.2-0.2,0.3-0.2c0.1-0.1,0.2-0.2,0.4-0.2 c0.1-0.1,0.2-0.2,0.4-0.2c0.1-0.1,0.2-0.1,0.4-0.2c0.1-0.1,0.2-0.1,0.4-0.2c0.1-0.1,0.2-0.1,0.4-0.2c0.1-0.1,0.2-0.1,0.4-0.2 c0.1-0.1,0.2-0.1,0.4-0.2c0.1-0.1,0.2-0.1,0.4-0.2c0.1-0.1,0.3-0.1,0.4-0.2c0.1-0.1,0.3-0.1,0.4-0.2c0.1-0.1,0.3-0.1,0.4-0.2 c0.1-0.1,0.3-0.1,0.4-0.2c0.1-0.1,0.3-0.1,0.4-0.2c0.1-0.1,0.3-0.1,0.4-0.2c0.1-0.1,0.3-0.1,0.4-0.2c0.1-0.1,0.3-0.1,0.4-0.2 c0.1-0.1,0.3-0.1,0.4-0.2c0.1-0.1,0.3-0.1,0.4-0.2c0.1-0.1,0.3-0.1,0.4-0.1c0.1,0,0.3-0.1,0.4-0.1c0.1,0,0.3-0.1,0.4-0.1 c0.1,0,0.3-0.1,0.4-0.1c0.1,0,0.3-0.1,0.4-0.1c0.1,0,0.3-0.1,0.4-0.1c0.1,0,0.3-0.1,0.4-0.1c0.1,0,0.3-0.1,0.4-0.1 c0.1,0,0.3-0.1,0.4-0.1c0.1,0,0.3-0.1,0.4-0.1c0.1,0,0.3-0.1,0.4-0.1c0.1,0,0.3-0.1,0.4-0.1c0.1,0,0.3-0.1,0.4-0.1 c0.1,0,0.3-0.1,0.4-0.1c0.1,0,0.2,0,0.2-0.1l0.2-0.1l0.1,0l0.1,0l0.1,0l0.1,0l0.1,0l0.1,0l0.2,0c0,0,0,0,0,0 c2.4-0.5,4.9-0.7,7.4-0.7c2.7-0.1,5.3,0,8,0.1c3.1,0.1,6.3,0.3,9.4,0.4c2.8,0.1,5.7,0.3,8.5,0.6c0,0,0-0.1,0-0.1 c0.6-2.1,1.5-4.1,2.8-5.7c-2.4-8.2-4.9-16.4-7.3-24.6c-3.7-1.4-7.3-4.4-7.3-8.7c0,0,0,0,0,0c-1.9-1.5-3.6-3.2-5.1-5 c-3.8-4.6-6.4-10.2-7.6-16c-1.5,1-3.1,2-4.7,2.7c-3.1,1.4-6.7,0.1-9.5-1.4c-0.4-0.1-0.8-0.3-1.1-0.6l-0.3-0.2 c-0.6-0.4-1.2-0.7-1.8-1.1c-0.9-0.6-1.8-1.2-2.5-2c-2.7-2-5.4-4-8.1-6.1c-3-2.4-6-4.8-8.7-7.5c-0.9-0.9-1.7-1.7-2.4-2.7 c-1.5-1.9-2.5-4.3-1.3-6.7c1-1.9,2.8-2.7,4.8-2.7c0-1,0.2-1.9,0.8-2.8c0.6-1,1.5-1.6,2.6-2c0-0.1-0.1-0.1-0.1-0.2 c-2.8-4.3-5.4-8.7-7.5-13.4c-2.3-5.1-4.8-11.1-3.4-16.7c0.7-2.8,2.2-5.2,3.9-7.5c2.1-2.8,4.4-5.5,6.6-8.3 c2.8-3.7,6.2-7.1,9.5-10.4c4.1-3.9,8.4-7.6,12.9-11c4.2-3.1,8.5-6.1,13.1-8.6c3.8-2.1,7.9-4,12.1-5.1 c0.7-6.6,3.1-11.2,10.3-12.4c0.7-0.1,1.4-0.2,2.1-0.1c1.4-3.7,3.1-7.4,4.8-11c2-4.1,4.2-8.1,6.5-12.1 c3.7-6.5,7.8-12.8,12.2-18.9c-2.6-0.3-5.1-0.9-7.5-1.8c-3.4,1.1-6.8,2.2-10.2,3.2c-8.6,2.5-17,4.7-26,3.3 c-0.2,0-0.4-0.1-0.6-0.1c-1.7,0.3-3.4,0.5-5.1,0.6c-4.2,0.3-11.5,0.6-13.2-4.4c-0.2-0.7-0.3-1.5-0.3-2.2 c0.2-2.9,2.6-5.5,4.6-7.4c2.9-2.8,6.1-5.3,9.2-7.8c0.7-0.6,1.4-1.1,2.1-1.7c2.7-2.2,5.3-4.4,7.9-6.7c1.5-1.4,3-2.8,4.4-4.3 c0.8-0.9,1.9-2.2,2.5-3.3c-0.2-1.4-0.3-2.9-0.3-4.4C82.9,16.7,99.6,0,120.1,0c20.6,0,37.3,16.7,37.3,37.3 c0,10.8-4.6,20.9-12.7,28c-1.8,3.9-3.7,7.8-5.5,11.8c-3.2,7.1-6.3,14.4-8.9,21.8C128,105.5,126,112.3,124.8,119.2z"></path> <g> <path class="st2" d="M35,210.6c5.6,0.4,11.6,4.6,15.7,8.3c3.8,3.4,7.7,6.7,11.6,10l2.3,1.9l-9.6,10.8l-2.2-1.8 c-4-3.4-8-6.9-11.8-10.5c-2.7-2.6-5.5-5.3-7.9-8.2c-1.8-2.2-4.5-5.7-2.7-8.6C31.5,210.9,33.3,210.5,35,210.6z"></path> <path class="st3" d="M34.8,213.5c4.5,0.4,9.9,3.9,14,7.5c4.1,3.6,11.7,10,11.7,10l-5.7,6.4C50.7,234.1,25.9,212.8,34.8,213.5z "></path> <path class="st2" d="M29.3,215.7c5.6,0,11.9,3.7,16.3,7c3,2.3,6,4.5,9,6.7c1.4,1,2.3,2.4,2.6,4.1c0.5,3.3-1.6,5.9-3.1,8.5 c-0.4,0.7-1.1,1.2-1.9,1.4c-0.8,0.2-1.6,0-2.3-0.5c-4.3-3.1-8.6-6.1-12.7-9.4c-3-2.3-6-4.8-8.6-7.4c-2-2-5.1-5.2-3.5-8.2 C25.9,216.2,27.6,215.7,29.3,215.7z"></path> <path class="st3" d="M29.3,218.6c4.6,0,10.2,3.1,14.5,6.4c2.5,1.9,6.4,4.7,9.1,6.7c3.3,2.4,0.1,6.2-1.3,8.7 C47.3,237.4,20.4,218.6,29.3,218.6z"></path> <path class="st2" d="M82.3,244.9l11.2,3.8c1,0.3,1.7,1.1,1.9,2.1l13.3,54.8c0.2,0.9,0,1.8-0.5,2.5c-0.6,0.7-1.4,1.1-2.3,1.1 h-7.1c-1.3,0-2.4-0.8-2.8-2.1c-5.8-19.5-11.6-39.1-17.3-58.6c-0.3-1.1,0-2.2,0.8-3C80.2,244.8,81.3,244.6,82.3,244.9z"></path> <path class="st4" d="M81.4,247.7c17.3,58.6,17.3,58.6,17.3,58.6h7.1l-13.3-54.8L81.4,247.7z"></path> <path class="st2" d="M91.4,254.9c7.2,0,13.1,4,13.1,8.9c0,4.9-5.9,8.9-13.1,8.9c-7.2,0-13.1-4-13.1-8.9 C78.4,258.9,84.2,254.9,91.4,254.9z"></path> <path class="st5" d="M91.4,257.9c5.6,0,10.2,2.7,10.2,6c0,3.3-4.5,6-10.2,6c-5.6,0-10.2-2.7-10.2-6 C81.3,260.5,85.8,257.9,91.4,257.9z"></path> <path class="st2" d="M86.3,208c0.9,0,1.7,0.1,2.6,0.2c6.6,0.8,12.3,4.8,16.4,9.8c4.6,5.6,7.4,12.6,8.1,19.8 c0.6,5.8-0.1,11.9-2.6,17.3c-2.2,4.8-5.7,8.9-10.5,11.2c-2.6,1.3-5.4,1.9-8.3,1.9c-0.9,0-1.7-0.1-2.6-0.2 c-6.6-0.8-12.3-4.8-16.4-9.8c-4.6-5.6-7.4-12.6-8.1-19.8c-0.6-5.8,0.1-11.9,2.6-17.3c2.2-4.8,5.7-8.9,10.5-11.2 C80.6,208.6,83.4,208,86.3,208z"></path> <ellipse transform="matrix(0.9667 -0.2559 0.2559 0.9667 -57.958 30.7396)" class="st3" cx="89.1" cy="238.1" rx="21" ry="27.5"></ellipse> <path class="st2" d="M50,233c0-0.4-0.4-1.3-0.6-1.7c-1.8-2.1-3.6-4.4-5.3-6.6c-3.9-5-7.7-10.1-11.1-15.4 c-2.7-4.2-5.4-8.7-7.4-13.2c-2.1-4.8-4.6-10.7-3.3-16.1c0.7-2.7,2.1-5,3.7-7.2c2.1-2.8,4.4-5.5,6.6-8.3 c9.9-12.7,35.8-34.6,52.3-35.5l2.2-0.1l0.7,2.1c1.4,3.9,0.2,10.4-0.6,14.4c-1.3,6.5-3.2,13.1-5.2,19.4 c-2.1,6.7-4.4,13.4-6.7,20.1c-0.8,2.4-1.7,4.8-2.5,7.3c-0.4,1.2-0.9,2.6-1.2,3.8c-0.2,0.8-0.2,1.8-0.3,2.6 c-0.1,1.5-0.2,3-0.2,4.5c-0.1,4-0.1,8-0.1,12c0,6.8,0.1,13.7,0.3,20.5l0,1.6l-1.3,0.9c-1.8,1.2-3.5,2.4-5.3,3.5 c-1.6,1-3.6,2.4-5.3,3.1c-3.7,1.7-8.7-1.2-11.8-3.2c-1.8-1.1-3.8-2.7-3.1-5.1c0.7-2.4,3.1-2.4,5-3.2 C49.7,233.1,49.9,233,50,233z"></path> <path class="st5" d="M85,131.8c-14.9,0.8-40.2,21.5-50.1,34.4c-9.9,12.8-13.3,13.7-6.6,28.6c6.6,14.9,23.6,34.8,23.6,34.8 c5,9.3-9.4,5.2-2.6,9.4c2.5,1.6,6.7,4,9,3c2.3-1,10.2-6.4,10.2-6.4s-0.9-34.5,0.3-40.3C70,189.5,88.7,142.3,85,131.8z"></path> <path class="st2" d="M55.3,193.3c-1.9-6.8-4.5-10.8-11.2-13.8c-4-1.8-7.2-1.9-11.4-2.3l4-1.1c3.9-0.5,8.8,0.9,12.2,2.8 c6.3,3.5,8.2,7.3,10.4,13.7c0.2,1.1-0.5,2.2-1.6,2.5C56.7,195.2,55.6,194.5,55.3,193.3z"></path> <path class="st2" d="M107.6,126.4c-31.8,0-54.6,31.4-52.5,70.2c4.4,80.9,119,94.8,113.8,0 C166.8,157.8,139.3,126.4,107.6,126.4z"></path> <path class="st2" d="M60.6,210.3c20.2,16.9,63.3,12.5,86.4,4.2c4.7-1.7,13.2-4.5,17.9-1.3c1.5,1,2.4,2.5,2.9,4.2 c0.1,0.3,0.2,0.7,0.2,1c0.4,0.1,0.7,0.3,1,0.5c0.9,0.7,1.3,1.8,1.1,2.9c-3.7,18.2-13.7,33.7-31.5,40.5 c-15,5.7-32,3.7-46.4-2.9c-15.8-7.2-28.7-20-35.7-35.9c-0.7-1.6-1.6-3.2-2.3-4.7c-0.6-1.2-1.2-2.3-1.8-3.5 c-0.4-0.8-1.1-1.9-1.1-2.8c-0.1-1.2,0.4-2.5,1.1-3.5c1.3-2,3.8-3.3,6-1.8C59.8,208,60,209.1,60.6,210.3z"></path> <path class="st5" d="M59.3,222.3c21.2,48.3,95.6,59.5,108-1.1c-4.9,2.3,4-12.4-19.3-4c-22.6,8.1-67.8,13.5-89.6-5 c-0.4-0.4-0.9-2.3-1.4-2.6c-1.1-0.7-2.7,1.6-2.6,2.7C54.3,212.5,58.5,220.6,59.3,222.3z"></path> <path class="st2" d="M72.3,223c22.5,8.1,55.5,3.7,74.6-3.1c4.8-1.7,13.4-4.7,18.1-1.5c1.5,1,2.5,2.5,3,4.2 c0.2,0.6,0.3,1.1,0.4,1.7c0,0.2,0.1,0.4,0.1,0.6c0.4,0.7,0.5,1.5,0.3,2.3c-6.7,24.6-25.4,38.5-50.8,38.5 c-12.3,0-24.8-4.7-35-11.4c-11.5-7.5-20.9-18.2-26.5-30.8c-0.7-1.6-1.6-3.2-2.3-4.7c-0.5-0.9-0.9-1.8-1.4-2.8 c-0.5-1-0.4-2.2,0.3-3.1c0.7-0.9-0.4-2.8,0.7-2.5c0.1,0.3,0.2,0.5,0.3,0.8c1,2.2,4,4.9,8.2,7.3 C65.7,220.3,70.3,222.3,72.3,223z"></path> <path class="st5" d="M59.3,222.3c10.9,24.9,37.1,40.4,58.8,40.4c23.4,0,41.4-12.4,47.9-36.3c-1.4-1.8,1.8-11-18.1-4 c-22.3,7.9-66.5,13.3-89.1-3.7c-2.7-2-2.7-2.7-0.9,0.9C58.6,220.9,59.1,221.8,59.3,222.3z"></path> <path class="st2" d="M168.7,183.7c-0.1,0.1-0.1,0.1-0.2,0.2c-5.1,4.6-14.7,7.5-21.2,9.2c-5.1,1.3-10.2,2.4-15.4,3.2 c-2,0.3-4,0.6-5.9,0.8c-1.3,0.1-2.6,0.3-3.9,0.3c-4.1,0-8.2-5-10.5-8c-1.9-2.6-3.8-5.4-5.4-8.3l-25.4-2.2l-10,11.3 c-0.6,0.6-1.3,1-2.1,1c-1.4,0-3-0.2-4.3-0.5c-3.6-0.6-7.1-1.7-10.4-3.1c-1.2-0.5-1.9-1.7-1.8-3c1.2-14.6,6.3-29.4,15.3-40.9 c5-6.4,19.7-11.3,28.4-10.6c6.7-3.3,4.2-9.8,11.7-9.8c6.3,0,12.5,1.1,18.4,3.3c22.9,8.4,38.2,30.6,43.7,54.1 C169.8,181.9,169.5,182.9,168.7,183.7z"></path> <path class="st5" d="M107.4,126.4c-28.2,0-49.7,25.3-52.5,58.5c8,3.3,13.7,3.3,13.7,3.3l10.9-12.4l28.4,2.5 c0,0,8.9,16.2,14.2,16.2c5.3,0,35.2-4.6,44.6-12.8c0,0,0.1-0.1,0.1-0.1C159.3,150,135.6,126.4,107.4,126.4z"></path> <path class="st2" d="M150.6,50.3c-12.2,27-29.1,57.4-27.8,84.1c0.5,10.7-21.1,11.2-29,7.9c-16-6.7,10.4-52.9,27.6-74.7 c4.9-6.2,9.8-10.1,11.8-11C140.9,53.3,150.6,51.7,150.6,50.3z"></path> <path class="st2" d="M145.7,55c-3,0.9-5.9,1.7-8.8,2.8c-0.9,0.3-1.8,0.7-2.7,1.1c-1.3,0.6-3.1,2.1-4.2,3.1 c-2.4,2.2-4.7,4.6-6.7,7.2c-6.3,8-12.2,16.9-17.3,25.8c-2.7,4.6-5.2,9.3-7.5,14.1c-2,4.3-3.9,8.7-5.3,13.2 c-1.3,4-3.6,13-0.3,16.6c0.5,0.6,1.1,1,1.8,1.2c3.4,1.4,8.7,1.8,12.3,1.6c4-0.2,13.6-1.4,13.3-7.1c-0.5-9.9,1.4-19.8,4.2-29.3 c3-10.1,7.2-20,11.5-29.6C139.2,68.8,142.5,61.9,145.7,55z"></path> <path class="st2" d="M92.8,121.8c-0.4,0.8-0.2,2.3,0.1,3.1c0.7,0.9,3.5,2.2,4.5,2.6c3.2,1.2,6.7,1.9,10.1,2 c1.5,0.1,3.1,0,4.6-0.1c2-0.2,7-1,7.9-3.1c0.1-0.2,0.1-0.4,0.2-0.6c0.1-0.5,0.1-1.1,0.2-1.7c0-0.3,0-0.6,0.1-0.9 c0.2-1.5,1.2-2.8,2.8-2.9c2.7-0.2,5.3,0.7,7.2,2.5c2.3,2.2,3.3,5.4,3,8.5c-0.3,3.6-2.4,6.7-5.2,8.9c-5.5,4.2-13.1,5.8-19.9,6 c-5.6,0.1-11.7-0.7-17-2.8c-4.5-1.8-9.1-4.9-10.6-9.7c-0.4-1.3-0.5-2.5-0.4-3.8c0.5-6.5,2.4-11.2,9.5-12.4 c1.2-0.2,2.9-0.3,3.6,0.7C94.1,119,93.5,120.8,92.8,121.8L92.8,121.8z M92.8,121.9"></path> <path class="st5" d="M90.4,120.2c-5.6,0.9-6.7,4.6-7.1,9.7c-1,12.9,29.8,18,43.2,7.8c7.3-5.5,4.1-15.2-3-14.7 c-0.3,0,0,2.6-0.7,4.3c-1.9,4.1-9.6,5.2-15.3,5c-8.9-0.3-16.6-4-17.3-6.6C89.1,122.1,90.4,120.2,90.4,120.2z"></path> <circle class="st2" cx="120.1" cy="37.3" r="36.3"></circle> <ellipse transform="matrix(0.7071 -0.7071 0.7071 0.7071 8.8369 95.8723)" class="st3" cx="120.1" cy="37.3" rx="33.4" ry="33.4"></ellipse> <path class="st5" d="M120.1,3.9c-16,0-29.3,11.2-32.6,26.2c2.4,16.1,16.2,28.5,33,28.5c16,0,29.3-11.2,32.6-26.2 C150.8,16.3,136.9,3.9,120.1,3.9z"></path> <path class="st2" d="M92.9,15.6c-5.2,5.9-7.2,17-7.2,21.6c0,4.6,1.1,1.5,1.1,2.2c7.3-7.2,9.6-5,13-3 c3.5,2.1,4.1,8.9,13.7,10.4c9.5,1.5,22.2-13.5,15.3-21.1c-5.4-6-20.3-11-31.6-10.7C96.5,15,93.6,15.6,92.9,15.6z"></path> <path class="st2" d="M89.9,304.1c0.1-0.3,0.2-0.6,0.2-0.9c2.4-9.1,10.7-12.2,17.8-6.5c3.9,3.2,5.8,8.4,6.7,13.2 c1,5.2,1.1,11.7,0.5,17c-0.2,1.6-1.5,2.8-3.1,2.8H36.4c-1,0-1.9-0.4-2.5-1.2c-0.6-0.8-0.8-1.7-0.5-2.7 c0.6-2.2,1.2-4.4,1.8-6.7c2.4-9,11.4-13,19.6-15.2c4.7-1.3,11.4-1.1,16.3-0.9C76.4,303.2,84.6,303.5,89.9,304.1z"></path> <path class="st5" d="M93.2,304c-1,3.6-1,3.6-1,3.6s-5-0.1-8.6-0.5c-7.9-0.8-21.7-1.9-28-0.2c-9.1,2.4-15.6,6.3-17.4,13 c-1.8,6.7-1.8,6.7-1.8,6.7h75.7C115.1,301.1,97.7,287,93.2,304z"></path> <path class="st2" d="M69.8,303.1c4.2,1.4,8.4,2.9,11.9,5.7c5.3,4.2,7.4,10.2,8.3,16.6c0.1,0.4,0.1,0.9,0.1,1.3 c-0.1,1.7-1.5,3-3.1,3H36.4c-1,0-1.9-0.4-2.5-1.2c-0.6-0.8-0.8-1.7-0.5-2.7c0.6-2.2,1.2-4.4,1.8-6.7c2.4-9,11.4-13,19.6-15.2 c4.2-1.1,9.8-1.1,14.1-0.9C69.2,302.9,69.5,303,69.8,303.1z"></path> <path class="st6" d="M68.8,306c-5.2-0.2-10.1,0-13.2,0.8c-9.1,2.4-15.6,6.3-17.4,13c-1.8,6.7-1.8,6.7-1.8,6.7H87 c0-0.2,0-0.5,0-0.7C85,312.2,78.4,309.2,68.8,306z"></path> <path class="st4" d="M64.7,326.5H87c0-0.2,0-0.5,0-0.7c-0.5-3.2-1.2-5.9-2.2-8c-3-0.5-6.9-0.4-10.5,0.8 c-3.8,1.2-7.3,3.5-9.3,7.4C64.9,326.2,64.8,326.4,64.7,326.5z"></path> <path class="st2" d="M157.9,327.3c-0.1,0-0.2,0-0.3,0c-1.6-0.1-2.7-1.5-2.7-3.1c0-0.3,0.1-0.6,0.2-0.9 c-0.1-0.7-0.3-1.7-0.4-2.2c-0.5-2.9-1.3-5.9-2-8.7c-1.4-5.8-3-11.5-4.6-17.2c-2.6-9.5-5.4-18.9-8.2-28.4c-0.3-1.1,0-2.2,0.8-3 c0.8-0.8,1.9-1,3-0.7l11.2,3.8c1,0.3,1.7,1.1,1.9,2.2l11,54.6c0.2,0.9,0,1.7-0.6,2.4c-0.6,0.7-1.4,1.1-2.3,1.1H157.9z"></path> <path class="st4" d="M142.7,265.9c17.3,58.6,15.1,58.4,15.1,58.4h7.1l-11-54.6L142.7,265.9z"></path> <path class="st2" d="M150.6,321.7c-0.3-1.9-0.8-3.8-1.2-5.8c-0.5-2.2-0.9-4.7,0.7-6.6c1-1.3,2.6-1.7,4.2-1.7 c3.5,0,4.8,5,5.5,7.6c0.3,1,0.6,2,0.8,3.1l1.5-0.4l-1.6-7.9c-0.1-0.6-0.1-1.1,0.1-1.6c0.4-1,1.2-1.9,2.3-2.3 c2.3-0.9,4.3,0.6,5.5,2.5c1.6,2.4,2.3,7.1,2.5,10.5c6.9,5.2,13.6,10.8,19.7,16.8c6.5,6.4,18.6,19.1,15.5,29.2 c-1.4,4.7-5.7,7.4-10.1,8.9c-6.7,2.3-13.5,2.6-20-0.4c-8.5-3.9-14.9-13-21.2-19.7c-0.1-0.2-0.2-0.3-0.4-0.5 c-1.5-2.6-3.4-5-5-7.6c-2.2-3.4-5.1-8.5-4.3-12.7C146,328.8,147.8,324.8,150.6,321.7z"></path> <path class="st5" d="M153.7,322.7c-3.6,3.4-5.1,7.9-5.7,10.8c-1,5,6.1,13.6,8.9,18.2c11.4,12.4,19.2,25.7,38.1,19.3 c26.7-9-16.1-42.3-27-50.5c0,0-0.4-7.7-2.1-10.4c-1.8-2.7-2.6-0.7-2.6-0.7l2.1,10.6l-7.1,1.9c0,0-2.3-11.3-4.1-11.3 C149.9,310.5,152.7,315.2,153.7,322.7z"></path> <path class="st2" d="M150.1,265.1c7.2,0,13.1,4,13.1,8.9c0,4.9-5.9,8.9-13.1,8.9c-7.2,0-13.1-4-13.1-8.9 C137,269.1,142.8,265.1,150.1,265.1z"></path> <path class="st5" d="M150.1,268c5.6,0,10.2,2.7,10.2,6c0,3.3-4.5,6-10.2,6c-5.6,0-10.2-2.7-10.2-6 C139.9,270.7,144.5,268,150.1,268z"></path> <path class="st2" d="M190.1,335.3c6.4,4.5,12.9,10.6,15.8,18c2.1,5.4,2.2,11.4-1.3,16.3c-2.1,2.9-5.1,4.8-8.5,5.7 c-6.5,1.8-13.1,1.1-19.3-1.5c-9.9-4.3-17.7-13.1-23.5-22c-0.7-1.1-0.6-2.5,0.2-3.5c8.9-10.5,21.8-17.2,35.6-13.5 C189.5,335,189.8,335.1,190.1,335.3z"></path> <path class="st4" d="M155.8,350.3c15.4,23.5,30.6,24.8,39.5,22.3c12.2-3.4,14.2-20.2-6.9-34.8 C175.7,334.3,163.9,340.5,155.8,350.3z"></path> <path class="st2" d="M140.6,217.9c7.1,0,13.5,3.7,18.2,8.9c5.2,5.7,8.4,13.2,9.4,20.8c0.7,5.8,0.1,11.8-2.2,17.1 c-2,4.8-5.4,8.9-10.1,11.3c-2.7,1.4-5.6,2.1-8.6,2.1c-7.1,0-13.5-3.7-18.2-8.9c-5.2-5.7-8.4-13.2-9.4-20.8 c-0.7-5.8-0.1-11.8,2.2-17.1c2-4.8,5.4-8.9,10.1-11.3C134.7,218.6,137.6,217.9,140.6,217.9z"></path> <ellipse transform="matrix(0.956 -0.2935 0.2935 0.956 -66.4281 53.1859)" class="st5" cx="144" cy="248" rx="20.9" ry="27.7"></ellipse> <path class="st2" d="M151.6,188.8c-1.5-1.1-3-2.3-4.4-3.5c-5.5-4.6-10.8-10-14.9-16c-4-6.1,13.3-7.1,13.6-14.5 c0-0.1,0-2.6,0-2.7c0.6-5-13-10.4-8.5-13.1c-6.4-2.3,6.2-6,14.7-1.7c5.6,2.8,10.9,7,15.3,11.2c10.7,10,35.6,34.6,36.1,50.1 c0.3,7.2-7.7,12.1-13.4,14.8c-8.4,3.9-18.5,6.3-27.6,7.5c-4.9,0.7-10,1.1-15,1.1c-2.9,0-6,0.1-8.9,0.5c-0.2,0-0.7,0.1-1.1,0.2 c0.2,0.2,0.5,0.3,0.6,0.4c1.3,0.7,1.9,2.2,1.4,3.5c-0.5,1.4-1.8,2.2-3.3,2c-2-0.3-4.3-1.3-6-2.4c-4-2.5-6.6-6.2-7.2-10.9 c-0.5-3.7,2.2-7.3,4.6-9.8c3-3.1,6.7-5.9,10.3-8.3c3.9-2.7,7.9-5.1,12-7.5C150.6,189.3,151.1,189,151.6,188.8z"></path> <path class="st5" d="M128.6,148.9c0.8-6.6,3.8-10.5,8.4-11.7c6.8-1.8,17.1,2.7,28.5,13.4c19.1,17.8,34.8,36.9,35.2,48.1 c0.4,11.2-29.4,20.3-53,20.3c-23.6,0-10.8,6.6-10.8,6.6s-9.5-1.7-10.8-10.8c-1.2-9.1,31.1-25.7,31.1-25.7 S127.8,170.4,128.6,148.9z"></path> <path class="st5" d="M119.8,73.8c2.2,0.1,5,0.4,7.9,1.1c2.5,0.6,5.1,1.5,7.5,2.8c-0.3,0.6-0.5,1.2-0.8,1.8 c-2.2-1.3-4.7-2.1-7.1-2.7c-3.4-0.8-6.7-1.1-8.8-1.1C118.9,75,119.4,74.4,119.8,73.8L119.8,73.8z M113.1,83.4 c-0.4,0.7-0.9,1.4-1.3,2c2.5-0.2,5.3,0,8.2,0.7c3.2,0.8,6.5,2.2,9.8,4.3c0.2-0.6,0.5-1.2,0.7-1.8c-3.3-2.1-6.7-3.5-10.1-4.3 C117.9,83.6,115.5,83.3,113.1,83.4L113.1,83.4z M105.6,95.7c-0.4,0.6-0.7,1.3-1.1,1.9c3.8,0.1,7.5,0.5,11.1,1.3 c3.4,0.8,6.7,1.9,9.9,3.4c0.2-0.6,0.4-1.2,0.6-1.9c-3.3-1.5-6.7-2.6-10.1-3.4C112.6,96.2,109.2,95.8,105.6,95.7L105.6,95.7z M99.1,107.9c-0.2,0.4-0.4,0.7-0.5,1.1c-0.1,0.2-0.2,0.4-0.3,0.6c2,0.6,4.8,1.3,7.9,1.8c5.6,1,12.1,1.9,16.2,2.4 c0.1-0.6,0.3-1.3,0.4-1.9c-4-0.4-10.6-1.3-16.3-2.4C103.6,109,100.9,108.4,99.1,107.9L99.1,107.9z M94.2,119.5 c-0.2,0.6-0.4,1.2-0.6,1.9c2.9,1.6,7.3,2.7,11.9,3.3c5.4,0.7,11.1,0.6,15.1-0.2c0.1-0.7,0.1-1.4,0.2-2 c-3.8,0.9-9.6,1-15.1,0.3C101.1,122.2,96.7,121.1,94.2,119.5z"></path> <path class="st5" d="M120,29.2c-3,0-5.4,2.4-5.4,5.4c0,3,2.4,5.4,5.4,5.4c3,0,5.4-2.4,5.4-5.4C125.4,31.6,123,29.2,120,29.2z"></path> <path class="st2" d="M119.7,52.3c1,0.3,3.3,0.3,4.3,0.4c2.7,0.2,7.4,0.3,8.3,3.5c0.2,0.8,0.2,1.6-0.1,2.3 c-1.3,3.2-6.3,5.7-9.2,7c-4.9,2.3-10.1,4.2-15.3,5.9c-3.4,1.1-6.9,2.2-10.4,3.2c-8.5,2.4-16.7,4.7-25.6,3.3 c-2.6-0.4-5.5-1.3-6.4-4.1c-0.8-2.4,0.4-4.8,1.9-6.6c1.8-2.2,4.1-4.2,6.3-6c4-3.3,10.1-8.5,12.4-13.4c1.3-2.8,3-5.8,5.2-8.1 c1.8-1.9,4.3-3.5,7-3.2c4.5,0.5,6.7,5.4,7.8,9.3C107.4,51,115.6,50.1,119.7,52.3z"></path> <path class="st4" d="M103.2,46.7c2.1,7.2,11.6,6.1,15.2,8.2c1.8,1,12,0.2,11,2.5c-1.7,4.2-19.6,10.6-33,14.5 c-8,2.3-15.9,4.5-24.3,3.2c-7-1.1-4.7-5,3.2-11.5c8.1-6.7,11.6-10.9,13.2-14.4C93.8,38.3,99.9,35.6,103.2,46.7z"></path> <path class="st2" d="M120.4,55.3c-0.4,1.5-1.8,2.8-3.1,3.7c-2.1,1.5-4.4,2.8-6.7,4c-6.6,3.6-13.8,6.7-20.9,9.4 c-7.3,2.7-16.1,5.6-23.9,6.1c-3.6,0.2-10.7,0.7-12.2-3.7c-1.1-3.3,1.9-6.5,4.1-8.6c2.8-2.7,6-5.2,9.1-7.7 c0.7-0.6,1.4-1.1,2.1-1.7c3.5-2.9,13.2-10.8,15.1-14.8c1.2-2.6,2.9-5.3,5-7.2c1.9-1.7,4.2-2.8,6.7-2.5 c1.3,0.1,2.5,0.6,3.6,1.3c2,1.3,3.7,2.9,5.4,4.6c1.2,1.2,2.4,2.6,3.8,3.7c1.5,1.3,3,2,5,2.4c3.2,0.6,6.9,0.1,10-0.4 c2.1-0.4,4.8-0.6,5.8,1.9c0.8,2.1-0.7,3.7-2.2,4.9c-1.1,0.9-2.3,1.7-3.5,2.4c-0.8,0.6-1.7,1.1-2.5,1.7 C121,54.9,120.7,55.1,120.4,55.3z"></path> <path class="st6" d="M116.6,55.8c-5.5,4.8-34.7,18.7-51,19.8c-18.4,1.2-5.4-7.9,5.2-16.6c8.1-6.7,14.3-12.3,15.9-15.8 c3.4-7.1,7.6-9.5,11-7.2c8.8,5.9,8.5,14,26.3,10.7C131.4,45.3,118.8,53.9,116.6,55.8z"></path> <path class="st2" d="M126.6,43.1c4.8,0,8.7,3.9,8.7,8.7c0,4.8-3.9,8.7-8.7,8.7c-4.8,0-8.7-3.9-8.7-8.7 C117.9,47,121.8,43.1,126.6,43.1z"></path> <g> <path class="st5" d="M126.6,45.2c-3.6,0-6.6,3-6.6,6.6c0,3.6,3,6.6,6.6,6.6c3.6,0,6.6-3,6.6-6.6 C133.2,48.1,130.3,45.2,126.6,45.2z"></path> <path class="st2" d="M130.3,48.1c2,2,2,5.3,0,7.3c-2,2-5.3,2-7.3,0c-2-2-2-5.3,0-7.3C125,46.1,128.3,46.1,130.3,48.1z"></path> <path class="st5" d="M129.6,48.8c-1.6-1.6-4.3-1.6-5.9,0c-1.6,1.6-1.6,4.3,0,5.9c1.6,1.6,4.3,1.6,5.9,0 C131.2,53.1,131.2,50.4,129.6,48.8z"></path> <path class="st2" d="M129.6,48.8c-0.2-0.2-0.4-0.4-0.6-0.5l-5.8,5.8c0.1,0.2,0.3,0.4,0.5,0.6c0.2,0.2,0.4,0.4,0.6,0.5 l5.8-5.8C129.9,49.2,129.8,49,129.6,48.8z"></path> </g> <path class="st2" d="M122.3,31.1c-1.3,0-2.3,1-2.3,2.3c0,1.3,1,2.3,2.3,2.3c1.3,0,2.3-1,2.3-2.3 C124.6,32.1,123.6,31.1,122.3,31.1z"></path> <path class="st5" d="M92.8,25.9c-1.2-0.4-2.7,1.1-3.4,3.4c-0.7,2.2-0.3,4.3,0.8,4.7c1.2,0.4,2.7-1.1,3.4-3.4 C94.3,28.4,94,26.3,92.8,25.9z"></path> <path class="st2" d="M93.2,27.6c-0.5-0.2-1.2,0.5-1.5,1.5c-0.3,1-0.1,1.9,0.4,2c0.5,0.2,1.2-0.5,1.5-1.5 C93.9,28.7,93.7,27.8,93.2,27.6z"></path> <path class="st2" d="M57.1,327.2c0.3-2.1,1-4,1.8-5.6c2.4-4.6,6.5-7.4,10.9-8.8c4.3-1.4,8.9-1.5,12.3-0.8 c1.7,0.3,3.1,0.9,4.1,1.5l-1.4,2.7c-0.8-0.5-1.9-0.9-3.2-1.2c-3.1-0.6-7.2-0.6-11,0.7c-3.8,1.2-7.3,3.5-9.3,7.4 c-0.7,1.3-1.2,2.9-1.5,4.6L57.1,327.2z"></path> <path class="st2" d="M41.3,327.7c0-0.5,0.1-0.9,0.1-1.4c0.7-5.5,4.1-10.7,9.9-14.4c5.6-3.6,13.4-5.7,22.9-5.4 c1.6,0.1,3.2,0.2,4.8,0.4l-0.4,3.1c-1.6-0.2-3.1-0.3-4.6-0.4c-8.8-0.3-16,1.6-21.1,4.9c-4.9,3.1-7.9,7.5-8.4,12.1 c0,0.4-0.1,0.8-0.1,1.1L41.3,327.7z"></path> <path class="st2" d="M181.9,373c1.6-4.7,0.3-10-2.2-15c-4-8.1-11-15-13.9-16.8l1.5-2.5c3.2,2,10.7,9.4,15,18 c2.8,5.6,4.2,11.7,2.3,17.3L181.9,373z"></path> <path class="st2" d="M196.2,372.4c1.9-5.8,0.4-12-2.4-17.6c-4.3-8.7-12.7-16.8-16.1-18.5l2.2-1.5c3.8,1.8,11.9,9.4,16.5,18.7 c3.1,6.2,4.7,13.2,2.5,19.8L196.2,372.4z"></path> <path class="st6" d="M76.9,185.1c-2.4,7.1-2.1,13.8-1,18.7c1.7,7.7,5,9.6,12.6,13.6c7.6-2.5,11.1-3.8,13.4-10.9 c1.5-4.7,2.4-11.5,0.5-19.2c-8.1,1.4-12.7-4.5-12.7-4.5S84.8,187.9,76.9,185.1z"></path> <path class="st7" d="M99.7,190.9c-2.9-0.1-5.8-0.9-8.4-2.4c-0.6-0.4-1.2-0.8-1.8-1.3c-0.6,0.4-1.3,0.7-1.9,0.9 c-2.7,1.1-5.5,1.4-8.3,1c-1,4.5-1,9.3,0,13.9c0.5,2.1,1.2,4.3,2.6,5.9c1.6,1.9,4.6,3.4,7,4.7c2.4-0.8,5.3-1.8,7-3.2 c1.5-1.3,2.3-3.1,2.9-5C100.2,200.8,100.4,195.8,99.7,190.9z"></path> <path class="st2" d="M98.6,192.1c-1.2-0.1-2.4-0.3-3.6-0.6c-1.5-0.4-2.9-1.1-4.3-1.9c-0.3-0.2-0.7-0.4-1-0.6 c-0.1-0.1-0.2-0.2-0.3-0.2c-0.1,0.1-0.2,0.1-0.3,0.1c-0.3,0.2-0.7,0.3-1,0.5c-1.4,0.6-2.9,1-4.4,1.1c-1.1,0.1-2.3,0.2-3.4,0.1 c-0.4,1.8-0.5,3.7-0.5,5.6c0,2.2,0.2,4.5,0.7,6.6c0.2,1,0.5,2,0.9,2.9c0.4,0.9,0.8,1.7,1.5,2.5c0.7,0.8,1.8,1.6,2.9,2.3 c1.1,0.7,2.2,1.3,3.2,1.8c1-0.3,2.1-0.7,3.2-1.2c1.1-0.5,2.2-1,2.9-1.7c0.6-0.5,1.1-1.2,1.5-1.9c0.4-0.8,0.7-1.6,1-2.5 c0.7-2.2,1.1-4.5,1.3-6.8C98.9,196.2,98.9,194.2,98.6,192.1L98.6,192.1z M95.7,189.1c1.3,0.4,2.7,0.6,4,0.6l1,0l0.2,1 c0.4,2.5,0.5,5.1,0.4,7.7c-0.2,2.5-0.6,5-1.4,7.4c-0.3,1-0.7,2-1.2,2.9c-0.5,1-1.2,1.9-2,2.6c-0.9,0.8-2.2,1.5-3.5,2.1 c-1.3,0.5-2.6,1-3.9,1.4l-0.5,0.2l-0.5-0.2c-1.2-0.6-2.6-1.4-3.9-2.2c-1.3-0.8-2.6-1.8-3.5-2.8c-0.8-0.9-1.4-2-1.9-3.1 c-0.4-1.1-0.7-2.2-1-3.3c-0.5-2.3-0.8-4.8-0.8-7.2c0-2.4,0.3-4.9,0.8-7.2l0.2-1.1l1.1,0.2c1.3,0.2,2.6,0.2,3.9,0 c1.3-0.2,2.5-0.5,3.7-1c0.3-0.1,0.6-0.2,0.9-0.4c0.3-0.2,0.6-0.3,0.9-0.5l0.7-0.4l0.6,0.5c0.3,0.2,0.6,0.4,0.9,0.6 c0.3,0.2,0.6,0.4,0.9,0.6C93.1,188.2,94.4,188.7,95.7,189.1z"></path> <path class="st2" d="M87.6,129.2c1,0,1.9,0.9,1.8,1.9c0,1-0.9,1.9-1.9,1.8c-1,0-1.9-0.9-1.8-1.9 C85.7,130,86.6,129.2,87.6,129.2L87.6,129.2z M125.6,130.8c1,0,1.9,0.9,1.8,1.9c0,1-0.9,1.9-1.9,1.8c-1,0-1.9-0.9-1.8-1.9 C123.7,131.6,124.6,130.8,125.6,130.8L125.6,130.8z M118.9,134.7c1,0,1.9,0.9,1.8,1.9c0,1-0.9,1.9-1.9,1.8 c-1,0-1.9-0.9-1.8-1.9C117,135.5,117.9,134.6,118.9,134.7L118.9,134.7z M110.7,136.4c1,0,1.9,0.9,1.8,1.9c0,1-0.9,1.9-1.9,1.8 c-1,0-1.9-0.9-1.8-1.9C108.8,137.2,109.7,136.4,110.7,136.4L110.7,136.4z M101.9,135.7c1,0,1.9,0.9,1.8,1.9 c0,1-0.9,1.9-1.9,1.8c-1,0-1.9-0.9-1.8-1.9C100,136.5,100.8,135.7,101.9,135.7L101.9,135.7z M93.9,133.2c1,0,1.9,0.9,1.8,1.9 c0,1-0.9,1.9-1.9,1.8c-1,0-1.9-0.9-1.8-1.9C92,134,92.9,133.2,93.9,133.2z"></path> <path class="st2" d="M56.8,230.9c1.9,3.8,1.1,8.2-1.9,9.9c-3,1.7-7,0.1-8.9-3.7c-1.9-3.8-1.1-8.2,1.9-9.9 C50.9,225.5,54.9,227.1,56.8,230.9z"></path> <path class="st5" d="M55.5,231.7c-1.5-2.9-4.5-4.1-6.8-2.8c-2.3,1.3-2.9,4.7-1.5,7.6c1.5,2.9,4.5,4.1,6.8,2.8 C56.3,237.9,57,234.5,55.5,231.7z"></path> <path class="st2" d="M55.1,235.6c-0.5,2.3-2.5,3.5-4.6,2.6c-2.1-0.9-3.4-3.5-3-5.8c0.5-2.3,2.5-3.5,4.6-2.6 C54.3,230.7,55.6,233.3,55.1,235.6z"></path> <path class="st5" d="M54.4,235.3c0.4-1.9-0.7-3.9-2.4-4.6c-1.7-0.7-3.3,0.2-3.7,2.1c-0.4,1.9,0.7,3.9,2.4,4.6 C52.4,238.1,54,237.2,54.4,235.3z"></path> <path class="st2" d="M54.4,235.3c0-0.2,0.1-0.5,0.1-0.7l-5.9-2.5c-0.1,0.2-0.1,0.4-0.2,0.6c0,0.2-0.1,0.5-0.1,0.7l5.9,2.5 C54.3,235.7,54.3,235.5,54.4,235.3z"></path> <path class="st2" d="M109.1,313.4c0.5,4.5-2.7,8.5-7.2,9.1c-4.5,0.5-8.5-2.7-9.1-7.2c-0.5-4.5,2.7-8.5,7.2-9.1 C104.6,305.7,108.6,308.9,109.1,313.4z"></path> <path class="st5" d="M107.2,313.7c-0.4-3.4-3.5-5.9-6.9-5.5c-3.4,0.4-5.9,3.5-5.5,6.9c0.4,3.4,3.5,5.9,6.9,5.5 C105.1,320.2,107.6,317.1,107.2,313.7z"></path> <path class="st2" d="M104.8,317.4c-1.7,2.1-4.8,2.5-6.9,0.8c-2.1-1.7-2.5-4.8-0.8-6.9c1.7-2.1,4.8-2.5,6.9-0.8 C106.2,312.2,106.5,315.3,104.8,317.4z"></path> <path class="st5" d="M104.1,316.8c1.4-1.7,1.1-4.2-0.6-5.5c-1.7-1.4-4.2-1.1-5.5,0.6c-1.4,1.7-1.1,4.2,0.6,5.5 C100.2,318.8,102.7,318.5,104.1,316.8z"></path> <path class="st2" d="M104.1,316.8c0.2-0.2,0.3-0.4,0.4-0.6l-6-4.8c-0.2,0.2-0.4,0.3-0.5,0.6c-0.2,0.2-0.3,0.4-0.4,0.6l6,4.8 C103.7,317.2,103.9,317,104.1,316.8z"></path> <path class="st2" d="M159.3,331.6c-0.3,4.7-3.5,8.1-7.2,7.7c-3.7-0.4-6.5-4.5-6.2-9.2c0.3-4.7,3.5-8.1,7.2-7.7 C156.7,322.8,159.5,327,159.3,331.6z"></path> <path class="st5" d="M157.6,331.5c0.2-3.6-1.9-6.7-4.8-7c-2.8-0.3-5.3,2.3-5.5,5.9c-0.2,3.6,1.9,6.7,4.8,7 C155,337.6,157.4,335,157.6,331.5z"></path> <path class="st2" d="M154.1,334.8c-1.7,1.8-4.2,1.5-5.7-0.6c-1.5-2.2-1.3-5.4,0.4-7.2c1.7-1.8,4.3-1.5,5.7,0.6 C156,329.8,155.8,333,154.1,334.8z"></path> <path class="st5" d="M153.6,334c1.4-1.4,1.5-4,0.3-5.7c-1.2-1.7-3.2-2-4.6-0.5c-1.4,1.4-1.5,4-0.3,5.7 C150.2,335.2,152.2,335.4,153.6,334z"></path> <path class="st2" d="M153.6,334c0.2-0.2,0.3-0.4,0.4-0.6l-4.2-6.1c-0.2,0.1-0.4,0.3-0.5,0.4c-0.2,0.2-0.3,0.4-0.4,0.6l4.2,6.1 C153.3,334.3,153.4,334.2,153.6,334z"></path> <path class="st2" d="M55.3,180.5c6.5,2.7,10.9,3.2,12.3,3.3l11.6-12.6l29.4,2.6l0.3,0.5c0,0,3.3,6,7.1,10.7l-1.5,1.2 c-3.2-4-5.7-9.7-6.6-11.2l-28.3-2.3L68.3,185l-0.4,0c0,0-5.2,0.7-13.4-2.6L55.3,180.5z"></path> <path class="st8" d="M144.7,35.6c0-14.4-8.5-23.6-21.7-28.1c-7.7-2.6,1.9,0.9-6.1-2.1c4.4-0.7,5.3-0.8,9.9,0.3 c14.9,3.6,23.5,15,24.6,30c0,1.8-1.5,3.3-3.3,3.3C146.2,38.9,144.7,37.4,144.7,35.6z"></path> <path class="st9" d="M95.5,41.3c-5,9.7-7.8,10.8-16.4,17c-5.9,4.2-12,8.9-18.5,12c4.2-6.1,10.1-10.8,15.6-15.7 c7-6.2,9.5-7.1,13.2-15.9c0.7-1.7,2.6-2.5,4.3-1.8C95.4,37.7,96.2,39.6,95.5,41.3z"></path> <path class="st2" d="M214.3,148.7c3.7,13.9,5.7,28.2,5.9,42.6c0.1,7.4-0.3,14.9-1.1,22.3c-0.8,7.3-2.2,14.6-4,21.8 c-8.8,34.1-24.2,41.6-54.3,55.5c-1.1,0.5-2.2,0.5-3.3,0c-31.3-14.4-46.2-22-54.8-57.5c-3.4-14-4.9-28.6-4.6-43 c0.3-14,2.2-28.1,5.9-41.6c0.3-1,0.9-1.9,1.8-2.4c0.9-0.5,2-0.7,3-0.4c12,3.4,23.9,2.4,34.8-3.6c3.4-1.8,6.5-4.1,9.3-6.7 c1.1-1,2.2-2.1,3.1-3.2c0.8-1,1.8-1.5,3.1-1.5c1.2,0,2.3,0.5,3.1,1.5c0.9,1.2,2,2.2,3.1,3.2c2.8,2.6,6,4.9,9.3,6.7 c10.9,6,22.8,7,34.8,3.6c1-0.3,2.1-0.2,3,0.4C213.3,146.8,214,147.7,214.3,148.7z"></path> <path class="st2" d="M213.3,149c7.4,27.7,7.9,58.3,0.7,86.1c-8.7,33.8-23.8,41-53.7,54.8c-0.8,0.4-1.7,0.4-2.5,0 c-31.1-14.4-45.7-21.7-54.2-56.8c-6.6-27.3-6-57,1.2-84.1c0.2-0.8,0.7-1.4,1.4-1.8c0.7-0.4,1.5-0.5,2.2-0.3 c12.2,3.4,24.4,2.4,35.5-3.7c3.4-1.9,6.6-4.2,9.5-6.8c1.1-1,2.3-2.2,3.2-3.4c0.6-0.7,1.4-1.1,2.3-1.1c0.9,0,1.7,0.4,2.3,1.1 c0.9,1.2,2.1,2.4,3.2,3.4c2.9,2.6,6.1,5,9.5,6.8c11.2,6.2,23.3,7.2,35.5,3.7c0.8-0.2,1.5-0.1,2.2,0.3 C212.6,147.6,213.1,148.2,213.3,149z"></path> <path class="st5" d="M107.7,149.7c-8.6,32.1-6.3,61.7-1.2,82.7c8.1,33.5,21.2,40.4,52.6,54.9c30.2-13.9,43.8-20.8,52.1-52.9 c5.4-21.1,8.1-51.6-0.7-84.7c-32.3,9.1-51.4-14.9-51.4-14.9S140,158.8,107.7,149.7z"></path> <path class="st3" d="M113.8,154.6c11.6,1.8,23.1-0.1,33.4-5.8c3.3-1.8,6.5-4.1,9.4-6.5c1.5-1.2,3.6-1.2,5.1,0 c2.9,2.5,6.1,4.7,9.4,6.5c10.3,5.7,21.8,7.6,33.4,5.8c2-0.3,4,1,4.4,3c4.6,20.7,5.2,42.3,1.7,63.2c-1.4,8.4-3.4,16.6-6.4,24.6 c-7.9,21.3-24.4,28.1-43.4,37.3c-1.1,0.5-2.3,0.5-3.4,0c-19-9.2-35.5-15.9-43.4-37.3c-2.9-8-5-16.2-6.4-24.6 c-3.5-20.9-2.9-42.5,1.7-63.2C109.8,155.6,111.7,154.3,113.8,154.6z"></path> <path class="st2" d="M113.5,156.5c12,1.9,23.9-0.1,34.6-6c3.4-1.9,6.8-4.2,9.7-6.7c0.7-0.6,1.8-0.6,2.5,0 c3,2.5,6.3,4.9,9.7,6.7c10.7,5.9,22.6,7.9,34.6,6c1-0.2,2,0.5,2.2,1.5c4.5,20.4,5.1,41.8,1.7,62.4c-1.4,8.2-3.4,16.4-6.3,24.2 c-7.6,20.7-23.9,27.2-42.4,36.2c-0.6,0.3-1.1,0.3-1.7,0c-18.5-8.9-34.8-15.5-42.4-36.2c-2.9-7.8-4.9-16-6.3-24.2 c-3.4-20.6-2.8-42,1.7-62.4C111.5,157,112.5,156.4,113.5,156.5z"></path> <path class="st6" d="M205,158.4c-12.3,1.9-24.6,0-35.9-6.3c-3.2-1.8-6.8-4.2-10.1-7c-3.2,2.7-6.8,5.2-10.1,7 c-11.3,6.2-23.5,8.2-35.9,6.3c-4.5,20.2-5,41.3-1.6,61.7c1.3,8.1,3.3,16.2,6.2,23.9c7.3,19.8,22.8,26.1,41.4,35.1 c18.6-9,34.1-15.2,41.4-35.1c2.8-7.7,4.8-15.8,6.2-23.9C210.1,199.8,209.5,178.6,205,158.4z"></path> <path class="st10" d="M205,158.4c-12.3,1.9-24.6,0-35.9-6.3c-3.2-1.8-6.8-4.2-10.1-7c-3.2,2.7-6.8,5.2-10.1,7 c-11.3,6.2-23.5,8.2-35.9,6.3c-2.9,13.1-4.2,26.6-3.8,40c20,13.9,50.9,22.8,85.5,22.8c3.9,0,7.8-0.1,11.6-0.3 c0-0.3,0.1-0.5,0.1-0.8C210.1,199.8,209.5,178.6,205,158.4z"></path> <path class="st3" d="M64.7,147.4c-10.5,9.4-21.9,21.1-24.3,25c-1.1,1.8-1.8,2.9-2.2,3.6c3.6-0.1,7.8,1.2,10.8,2.8 c1.3,0.7,2.4,1.5,3.4,2.2C53.9,169.1,58,157.3,64.7,147.4z"></path> <path class="st3" d="M51.3,220.5c-1.2-0.3-3.5-2.5-6.2-5.9c-6.7-8.5-16.2-24.5-19.3-36c-1.8,4-1.2,8,2.4,16.2 c2.3,5.2,5.9,11,9.5,16.3c1,1.5,2.1,3,3.1,4.4c2.3,3.2,4.6,6.2,6.4,8.5c0.8,1,1.5,1.9,2.1,2.7c0.4-0.1,0.9-0.1,1.4-0.1 c2.3,0.2,4.7,1.8,6,4.4c0.5,1,0.8,2.1,1,3.2c0.3,2.8-0.7,5.5-2.9,6.7c0,0-0.1,0-0.1,0c-0.1,0.1-0.2,0.1-0.3,0.2 c-0.3,0.1-0.6,0.2-0.8,0.3c0.2,0.1,0.5,0.2,0.7,0.3c1.5,0.6,3,0.8,4,0.4c1.2-0.6,4.2-2.4,6.5-4c0.1-0.1,0.2-0.1,0.3-0.2 c-0.1-0.1-0.2-0.3-0.3-0.4c-0.9-1.2-1.8-2.5-2.7-3.8c-2-3-3.7-6.1-5.2-9.4c-0.1-0.3-0.2-0.5-0.3-0.8c-0.5-1.2-1.1-2.3-1.7-3.5 c-0.8,0.3-1.5,0.5-2.2,0.6C52.2,220.6,51.7,220.6,51.3,220.5z"></path> <path class="st8" d="M30.9,172.7c6.6-10.7,20.3-22.9,31-29.6c2.5-1.5,1.9-1.2,4.5-2.2c-11.3,10.1-24.4,19.8-32.1,33.3 c-0.4,0.9-1.5,1.4-2.4,1C30.9,174.7,30.5,173.7,30.9,172.7z"></path> <path class="st3" d="M99.1,174.3l-19.7-1.6l0,0l-4.9,5.4l-6.2,6.8l-0.4,0c0,0-4.8,0.7-12.5-2.3c-0.1,0-0.2-0.1-0.3-0.1 c0,0.4-0.1,0.7-0.1,1.1c0,0.4-0.1,0.9-0.1,1.3c0.1,0,0.2,0.1,0.3,0.1c0.4,0.2,0.8,0.3,1.2,0.5c7.2,2.7,12.2,2.7,12.2,2.7 l4-4.6l5.1-5.8l1.8-2.1l19.3,1.7C98.9,176.4,99,175.4,99.1,174.3z"></path> <path class="st3" d="M106.5,247c-11.4,0-24.1-4.3-35.1-12c-1-0.7-2-1.4-3-2.2c-0.2-0.2-0.5-0.4-0.7-0.6 c-0.9-0.7-1.8-1.5-2.7-2.3c-0.3-0.2-0.6-0.5-0.8-0.7c-1-0.9-1.9-1.8-2.9-2.7c0.5,1,1,1.9,1.6,2.9c0.4,0.7,0.8,1.4,1.3,2.1 c0.2,0.3,0.4,0.6,0.6,0.9c0.9,1.4,1.9,2.7,2.9,3.9c0,0,0,0.1,0.1,0.1c0.6,0.8,1.2,1.5,1.8,2.2c2.8,3.2,5.8,6.2,9,8.8 c1.2,1,2.4,1.9,3.6,2.8c2.1,1.5,4.3,3,6.6,4.2c0.4,0.2,0.8,0.4,1.2,0.7c1.3,0.7,2.7,1.4,4.1,2c1.1,0.5,2.2,1,3.4,1.5 c2,0.8,4.1,1.5,6.1,2.1c0.1,0,0.1,0,0.2,0.1c1,0.3,2.1,0.6,3.1,0.8c2.8,0.6,5.6,1,8.3,1.2c-3.2-4.4-5.9-9.4-8.2-15.6 C106.7,247,106.6,247,106.5,247z"></path> <path class="st5" d="M78.1,250.8c-3.5-2.7-6.7-5.7-9.7-9c1.6,7.7,5.7,14.4,11,18.6c0.8,0.6,1.6,1.2,2.4,1.7 c0.3,0.2,0.7,0.4,1,0.6c1.1,0.6,2.3,1.2,3.5,1.6c1.8,0.6,3.8,0.9,5.7,0.9c0,0,0.1,0,0.1,0c-2.4-1-4.7-2.5-6.8-4.4 c-0.4-0.4-0.8-0.7-1.1-1.1c-0.7-0.7-1.3-1.4-1.9-2.2c-0.6-0.7-1.1-1.4-1.6-2.2C79.7,253.9,78.8,252.4,78.1,250.8z"></path> <path class="st8" d="M57,178.5c1.6-11.3,8.4-27.4,16.1-35.6l3.5-3.1c-6.2,14-12.4,23.2-13.5,39.2c-0.1,1.7-1.6,2.9-3.3,2.8 C58.1,181.7,56.8,180.2,57,178.5z"></path> <path class="st4" d="M48.6,326.5h8.6c0.4-1.8,0.9-3.5,1.7-4.9c2.4-4.6,6.5-7.4,10.9-8.8c3.6-1.2,7.4-1.4,10.6-1 c-0.2-0.2-0.4-0.3-0.6-0.5c-0.7-0.1-1.3-0.1-2-0.1c-8.8-0.3-16,1.6-21.1,4.9C52.4,318.8,49.6,322.5,48.6,326.5z"></path> <path class="st6" d="M180,368.3c-1.1-7.5-7.9-16.7-16.9-25c-2.6,1.9-5,4.2-7.1,6.8c-0.1,0.1-0.1,0.1-0.2,0.2 c8.5,13,17,19.2,24.3,21.7c0-0.1,0-0.1,0-0.2C180.2,370.8,180.2,369.6,180,368.3z"></path> <path class="st6" d="M194.2,365.1c-0.8-9.3-9-21.5-17.4-27.9c-2.8,0.5-5.4,1.4-7.9,2.6c3.6,2.9,9.8,9.5,13.5,16.9 c2.6,5.2,4,10.7,2.7,15.9c0,0.2-0.1,0.4-0.1,0.6c3.4,0.5,6.4,0.3,9-0.3c0.1-0.5,0.2-1,0.2-1.6 C194.3,369.6,194.4,367.6,194.2,365.1z"></path> <path class="st6" d="M201.9,361c-0.6-9.6-7.4-16-16.2-23.9c-1-0.2-1.9-0.3-2.9-0.3c4.2,3.2,9.9,9.5,13.6,16.7 c2.4,4.7,3.8,9.9,3.5,15.1c0,0.6-0.1,1.2-0.2,1.9c0.5-0.4,0.9-0.8,1.4-1.2c0.2-0.7,0.4-1.4,0.6-2.2 C201.9,365.3,202.1,363.4,201.9,361z"></path> <path class="st6" d="M154.4,307.6c2,0.1,3.3,2.1,4.1,4.1c-1.3-5.3-3.3-12.7-6.2-23.2c-1.2-0.6-2.4-1.1-3.6-1.7 C151.3,295.6,153.1,302.4,154.4,307.6z"></path> <path class="st6" d="M98,294.1c-1.4-4.9-3.5-11.7-6.3-21.3c-0.1,0-0.2,0-0.3,0c-0.9,0-1.8-0.1-2.7-0.2 c3.1,10.5,5.2,17.7,6.7,22.7C96.3,294.8,97.1,294.4,98,294.1z"></path> <path class="st8" d="M89.9,123.5c-1,9.2,24.1,11.9,31.7,6.6l0.7-0.5c-3.5,7.9-36.5,7.9-35.6-6.6c0.1-0.9,1-1.5,1.8-1.3 C89.5,121.8,90.1,122.7,89.9,123.5z"></path> <path class="st8" d="M95.2,304.8c0.6-1.5,1.2-2.7,2-3.6c2-2.4,4.5-2.7,7.1-1.4c1.3,0.7,2.6,1.8,3.8,3.3 c0.2,0.2,0.3,0.4,0.5,0.7c-0.2-0.4-0.4-0.7-0.6-1c-1.3-2.1-2.7-3.7-4.2-4.7c-2.6-1.8-5.4-2-7.6,0.1c-0.8,0.7-1.5,1.8-2.1,3.1 c-0.4,0.8-0.7,1.8-1,2.8c-1,3.6-1,3.6-1,3.6s-5-0.1-8.6-0.5c-1.5-0.2-3.3-0.3-5.2-0.5c1.1,0.6,2.2,1.3,3.2,2.1 c0.2,0.2,0.5,0.4,0.7,0.6c1,0.1,1.9,0.2,2.8,0.3c3.5,0.4,8.6,0.5,8.6,0.5s0,0,1-3.6C94.9,305.9,95,305.3,95.2,304.8z"></path> <path class="st4" d="M143.3,256.4c-8-3.6-15.2-9.1-20.6-16.6c-0.8-1.1-1.6-2.3-2.4-3.5c-1.4-2.2-2.6-4.6-3.6-7.1 c-0.2-0.6-0.4-1.1-0.7-1.7c-0.1-0.3-0.2-0.6-0.3-0.9c-0.3-0.8-0.6-1.6-0.8-2.4c-0.3-0.9-0.6-1.9-0.9-2.9 c-1.8-5.8-3.1-11.8-4.1-17.8c-0.1-0.7-0.2-1.4-0.3-2.1c0.3,6.3,1,12.5,2,18.7c0.1,0.5,0.2,0.9,0.2,1.4c0.2,1,0.3,1.9,0.5,2.9 c0.2,0.8,0.3,1.6,0.5,2.5c0.2,0.9,0.4,1.7,0.6,2.6c1.2,5,2.6,9.9,4.3,14.6c0.7,1.8,1.4,3.5,2.2,5.1c1.5,3,3.3,5.7,5.2,8.1 c1.3,1.6,2.7,3,4.1,4.4c0,0,0.1,0.1,0.1,0.1c0,0,0.1,0.1,0.1,0.1c0.9,0.8,1.7,1.5,2.7,2.3c0.1,0,0.1,0.1,0.2,0.1 c2.2,1.7,4.5,3.3,7,4.8c0.5,0.3,1.1,0.6,1.6,0.9c0.3,0.2,0.7,0.4,1,0.6c0.9,0.5,1.8,1,2.6,1.4c1.9,1,3.8,1.9,5.8,2.9 c1.3,0.6,2.6,1.3,4,1.9c0.4,0.2,0.8,0.4,1.2,0.6c0.6,0.3,1.2,0.6,1.8,0.9c0.5,0.2,1,0.5,1.5,0.7c0.1,0,0.2,0.1,0.3,0.1 c1-0.5,1.9-0.9,2.9-1.4c16.4-7.9,30.1-14.2,37.4-30.9c-8.3,9.2-19.9,13.8-32,14.3c-1,0-2,0-3.1,0c-5.8-0.1-11.6-1.2-17.1-3.2 c0,0-0.1,0-0.1,0c-1.1-0.4-2.2-0.8-3.3-1.3c0,0-0.1,0-0.1-0.1C143.5,256.5,143.4,256.4,143.3,256.4z"></path> </g> <path class="st8" d="M184.5,334c-6.5-6-13.1-11-16.5-13.5c0,0-0.4-7.7-2.1-10.4c-0.4-0.6-0.8-1-1.1-1.2 c-0.2-0.1-0.4-0.2-0.6-0.2c2.2,12.6,2.2,12.6,2.2,12.6l1,0.9l13.5,11.7C182.1,333.8,183.3,333.9,184.5,334z"></path> </g> <path class="st2" d="M1.9,327.1h135.5c1,0,1.9,0.8,1.9,1.9l0,0c0,1-0.8,1.9-1.9,1.9H1.9c-1,0-1.9-0.8-1.9-1.9l0,0 C0,327.9,0.8,327.1,1.9,327.1z"></path> <path class="st2" d="M193.3,327.1h23.6c1,0,1.9,0.8,1.9,1.9l0,0c0,1-0.8,1.9-1.9,1.9h-23.6c-1,0-1.9-0.8-1.9-1.9l0,0 C191.4,327.9,192.3,327.1,193.3,327.1z"></path> </g> <path class="st9" d="M115.4,161.9c-2.9,18.9-4.1,36.9-1.5,46.8c2.7,9.9,2.7,9.9,2.7,9.9l42.9-70.2 C159.5,148.5,144,165.1,115.4,161.9z"></path> </g> </g> <g> <path class="st0" d="M74.9,155.6c-0.4-0.2-0.9-0.4-1.3-0.5c0.4-0.8,0.8-1.6,1.2-2.4c-0.8-0.4-1.7-0.7-2.5-1.1 c-0.4,0.8-0.8,1.6-1.3,2.3c-0.4-0.2-0.8-0.4-1.2-0.6c1.1-1.9,2.1-3.7,3-5.6c0.4,0.2,0.8,0.4,1.2,0.6c-0.4,0.8-0.8,1.6-1.2,2.4 c0.8,0.4,1.6,0.8,2.5,1.1c0.4-0.8,0.8-1.7,1.1-2.5c0.4,0.2,0.8,0.3,1.2,0.5C76.7,151.8,75.8,153.7,74.9,155.6z"></path> <path class="st0" d="M82.4,155.6c-0.3,0.7-0.8,1.3-1.5,1.6c-0.7,0.3-1.5,0.3-2.3,0c-0.8-0.3-1.4-0.8-1.7-1.4 c-0.3-0.7-0.3-1.3,0.1-2.1c0.2-0.4,0.3-0.7,0.5-1.1c0.3-0.7,0.8-1.2,1.5-1.5c0.7-0.3,1.4-0.3,2.1,0c0.8,0.3,1.3,0.7,1.6,1.4 c0.3,0.6,0.4,1.3,0.1,2.1C82.7,154.8,82.5,155.2,82.4,155.6z M81.5,154.1c0.2-0.5,0.2-0.9,0.1-1.3c-0.1-0.4-0.4-0.6-0.8-0.8 c-0.4-0.2-0.8-0.1-1.2,0.1c-0.4,0.2-0.6,0.5-0.8,1c-0.1,0.4-0.3,0.7-0.5,1.1c-0.2,0.5-0.2,0.9-0.1,1.3c0.1,0.4,0.4,0.7,0.8,0.8 c0.5,0.2,0.9,0.1,1.2-0.1c0.4-0.2,0.7-0.6,0.8-1C81.2,154.8,81.4,154.4,81.5,154.1z"></path> <path class="st0" d="M88.2,159.8c-0.5-0.1-0.9-0.2-1.4-0.3c-0.5-1.6-1-3.2-1.4-4.9c0,0,0,0,0,0c-0.5,1.4-0.9,2.8-1.4,4.1 c-0.5-0.1-0.9-0.3-1.4-0.4c0.8-2,1.5-4,2.2-6c0.4,0.1,0.9,0.2,1.3,0.4c0.4,1.6,0.9,3.2,1.4,4.9c0,0,0,0,0,0 c0.4-1.4,0.9-2.8,1.2-4.2c0.4,0.1,0.9,0.2,1.3,0.3C89.4,155.7,88.8,157.7,88.2,159.8z"></path> <path class="st0" d="M92.5,157.9c-0.3,0-0.5-0.1-0.8-0.1c-0.2,0.9-0.5,1.7-0.7,2.6c-0.5-0.1-1-0.2-1.4-0.3 c0.6-2.1,1.2-4.1,1.7-6.2c0.5,0.1,0.9,0.2,1.4,0.2c-0.2,0.8-0.4,1.7-0.6,2.5c0.2,0,0.4,0.1,0.6,0.1c0.8-0.7,1.6-1.5,2.4-2.3 c0.6,0.1,1.1,0.2,1.7,0.2c-1,0.9-1.9,1.8-3,2.6c0.6,1.2,1.2,2.5,1.8,3.7c-0.6-0.1-1.2-0.2-1.8-0.2 C93.3,159.8,92.9,158.9,92.5,157.9z"></path> </g> </g> </svg> 